<?xml version="1.0" encoding="utf-8"?>
<!-- Generator: Adobe Illustrator 24.0.2, SVG Export Plug-In . SVG Version: 6.00 Build 0)  -->
<svg version="1.1" id="Слой_1" xmlns="http://www.w3.org/2000/svg" xmlns:xlink="http://www.w3.org/1999/xlink" x="0px" y="0px"
	 viewBox="0 0 1280 1280" style="enable-background:new 0 0 1280 1280;" xml:space="preserve">
<style type="text/css">
	.st0{fill:#CC0000;stroke:#FF2E2E;stroke-miterlimit:10;}
	.st1{fill:#FFFFFF;stroke:#FF2E2E;stroke-miterlimit:10;}
	.st2{fill:#08AF23;}
</style>
<g>
	<circle class="st0" cx="640" cy="640" r="640"/>
</g>
<circle class="st1" cx="649.7" cy="646.5" r="466.5"/>
<g transform="translate(0.000000,1280.000000) scale(0.100000,-0.100000)">
	<path class="st2" d="M8380,9638c-581-1006-1113-1934-1116-1947c-3-11,22-32,83-71c120-75,328-282,412-409c152-230,241-486,258-747
		l6-94h1175h1175l-7,148c-55,1188-615,2243-1566,2951c-110,82-354,241-370,241C8425,9710,8403,9677,8380,9638z"/>
	<path class="st2" d="M4445,9634c-246-154-455-323-681-548c-438-439-748-944-938-1525c-112-341-179-722-188-1061l-3-125l1171-3
		l1172-2l7,87c22,284,122,562,282,786c77,108,228,260,333,335c47,34,95,69,107,79l23,18l-584,1005c-322,553-591,1006-598,1008
		C4540,9689,4494,9665,4445,9634z"/>
	<path class="st2" d="M6305,7109c-44-11-127-42-184-70c-91-44-116-63-196-142c-136-136-204-272-224-450c-44-388,208-771,579-877
		c102-29,280-37,376-17c361,77,618,371,641,734c25,390-245,748-625,828C6575,7136,6403,7133,6305,7109z"/>
	<path class="st2" d="M5180,4093c-300-520-562-977-583-1014l-37-67l45-27c190-111,530-256,772-328c391-118,694-161,1128-162
		c525,0,939,78,1425,268c151,59,471,214,498,241c12,12-76,163-583,1002c-329,544-603,995-609,1002c-10,10-31,4-107-32
		c-302-143-670-175-1004-89c-113,29-213,66-315,118c-38,19-73,35-78,35C5728,5040,5479,4614,5180,4093z"/>
</g>
</svg>
